# File created by Blade
# Date/Time:  Wed Apr 08 14:47:20 2015
# Frame Rate: 120.000 fps
#------------------------------------------------------
:FULLY-SPECIFIED
:DEGREES
3938
root -1.570955 32.210165 5.408540 8.509755 8.599034 -5.738007
Spine -6.189733 -2.054347 6.806969
Head 13.785720 -2.799756 -3.660330
LeftShoulder -19.530237 50.381995 0.072812
LeftArm 51.484436 15.976871 -72.645526
LeftForeArm -2.193549 0.000000 29.210776
LeftHand 13.058768 -0.000000 10.210232
LeftHandThumb1 -26.253704 0.000000 33.147579
RightShoulder -4.321509 -15.182030 -16.885024
RightArm 15.866954 -26.502887 82.570413
RightForeArm -5.065341 -0.000000 58.493705
RightHand 4.267553 -0.000000 7.754751
RightHandThumb1 -24.326973 -0.000000 -32.862282
LeftUpLeg -35.803512 0.518704 8.039182
LeftLeg 52.206861 -0.000000 -0.000000
LeftFoot -12.954175 16.333458 -20.502858
LeftToeBase -7.535228 -0.000000 0.000000
RightUpLeg -4.157941 -15.119039 11.880546
RightLeg 2.415633 -0.000000 -0.000000
RightFoot -14.968304 -9.917996 3.131480
RightToeBase 0.346496 -0.000000 -0.000000
3939
root -1.563609 32.208939 5.427056 8.630291 8.460830 -5.727626
Spine -6.302002 -1.972247 6.809387
Head 13.825614 -2.717590 -3.675230
LeftShoulder -19.535314 50.324014 0.108301
LeftArm 51.525852 16.068668 -72.636366
LeftForeArm -2.080923 -0.000000 29.226649
LeftHand 13.117184 -0.000000 11.048219
LeftHandThumb1 -26.253704 0.000000 33.147579
RightShoulder -4.270932 -15.120448 -16.908525
RightArm 15.972646 -26.732573 82.544911
RightForeArm -5.209883 -0.000000 58.749576
RightHand 4.347303 0.000000 7.865673
RightHandThumb1 -24.326973 -0.000000 -32.862282
LeftUpLeg -36.332339 0.631051 7.978909
LeftLeg 52.426890 -0.000000 -0.000000
LeftFoot -12.912066 16.148870 -20.382199
LeftToeBase -7.616488 -0.000000 0.000000
RightUpLeg -4.199852 -15.115509 11.874309
RightLeg 2.360164 -0.000000 -0.000000
RightFoot -14.972309 -9.830178 3.170934
RightToeBase 0.319796 -0.000000 -0.000000
3940
root -1.555447 32.207619 5.448073 8.746096 8.303023 -5.721558
Spine -6.405906 -1.850510 6.815655
Head 13.851416 -2.662853 -3.710510
LeftShoulder -19.483301 50.195617 0.184717
LeftArm 51.450955 16.149797 -72.623579
LeftForeArm -2.205013 -0.000000 29.349095
LeftHand 13.231201 -0.000000 11.483312
LeftHandThumb1 -26.253704 0.000000 33.147579
RightShoulder -4.245026 -15.032679 -16.932436
RightArm 16.048112 -26.956737 82.543027
RightForeArm -5.385084 -0.000000 59.056522
RightHand 4.319009 0.000000 7.984884
RightHandThumb1 -24.326973 -0.000000 -32.862282
LeftUpLeg -36.805014 0.783615 7.910580
LeftLeg 52.495744 -0.000000 -0.000000
LeftFoot -12.838385 15.919248 -20.058362
LeftToeBase -7.488189 -0.000000 0.000000
RightUpLeg -4.242194 -15.099905 11.866859
RightLeg 2.323292 -0.000000 -0.000000
RightFoot -14.974430 -9.755411 3.154911
RightToeBase 0.308590 -0.000000 -0.000000
3941
root -1.547311 32.207260 5.472915 8.867849 8.165627 -5.710689
Spine -6.523812 -1.714867 6.790412
Head 13.876890 -2.639092 -3.685128
LeftShoulder -19.391572 50.171030 0.313059
LeftArm 51.451464 16.156624 -72.713820
LeftForeArm -2.246240 -0.000000 29.410760
LeftHand 13.392021 -0.000000 11.752979
LeftHandThumb1 -26.253704 0.000000 33.147579
RightShoulder -4.239349 -14.904259 -16.919019
RightArm 16.057764 -27.199751 82.543183
RightForeArm -5.543535 -0.000000 59.371439
RightHand 4.392462 0.000000 8.317581
RightHandThumb1 -24.326973 -0.000000 -32.862282
LeftUpLeg -37.244703 0.934955 7.829822
LeftLeg 52.394827 -0.000000 -0.000000
LeftFoot -12.789324 15.584199 -19.951257
LeftToeBase -7.295941 -0.000000 0.000000
RightUpLeg -4.276970 -15.064415 11.862301
RightLeg 2.262523 -0.000000 -0.000000
RightFoot -14.984221 -9.781981 3.122724
RightToeBase 0.440103 -0.000000 -0.000000
3942
root -1.536449 32.208129 5.500180 8.987417 8.014188 -5.669585
Spine -6.642363 -1.620996 6.741957
Head 13.916348 -2.571005 -3.694189
LeftShoulder -19.363667 50.084902 0.383986
LeftArm 51.383616 16.188440 -72.747858
LeftForeArm -2.254408 0.000000 29.525549
LeftHand 13.440580 -0.000000 12.024363
LeftHandThumb1 -26.253704 0.000000 33.147579
RightShoulder -4.172330 -14.846833 -16.923775
RightArm 16.193465 -27.447908 82.508845
RightForeArm -5.667464 -0.000000 59.675795
RightHand 4.390937 -0.000000 8.536805
RightHandThumb1 -24.326973 -0.000000 -32.862282
LeftUpLeg -37.633172 1.055104 7.738299
LeftLeg 52.152745 -0.000000 -0.000000
LeftFoot -12.630799 15.255649 -19.617415
LeftToeBase -7.097587 -0.000000 0.000000
RightUpLeg -4.304161 -15.026805 11.816808
RightLeg 2.202346 -0.000000 -0.000000
RightFoot -15.058436 -9.778944 3.241479
RightToeBase 0.708961 -0.000000 -0.000000
3943
root -1.525167 32.208481 5.530457 9.100222 7.878594 -5.619047
Spine -6.751804 -1.524488 6.671483
Head 13.924980 -2.533774 -3.689294
LeftShoulder -19.356563 50.038336 0.471270
LeftArm 51.384069 16.157731 -72.863013
LeftForeArm -2.417251 -0.000000 29.556697
LeftHand 13.561319 -0.000000 11.945035
LeftHandThumb1 -26.253704 0.000000 33.147579
RightShoulder -4.152044 -14.748950 -16.921119
RightArm 16.303406 -27.704396 82.522068
RightForeArm -5.904826 -0.000000 59.948853
RightHand 4.436746 -0.000000 8.761977
RightHandThumb1 -24.326973 -0.000000 -32.862282
LeftUpLeg -37.984480 1.148283 7.635591
LeftLeg 51.754614 -0.000000 -0.000000
LeftFoot -12.448968 15.004579 -19.436003
LeftToeBase -7.199401 -0.000000 0.000000
RightUpLeg -4.313486 -14.932378 11.762897
RightLeg 2.158658 -0.000000 -0.000000
RightFoot -15.010663 -9.830814 3.211893
RightToeBase 0.494984 -0.000000 -0.000000
3944
root -1.510760 32.209186 5.564827 9.194286 7.775735 -5.564748
Spine -6.846491 -1.441593 6.596306
Head 13.924391 -2.515305 -3.673142
LeftShoulder -19.333490 50.054127 0.550984
LeftArm 51.426725 16.173034 -72.893301
LeftForeArm -2.390154 -0.000000 29.667620
LeftHand 13.489564 -0.000000 12.103031
LeftHandThumb1 -26.253704 0.000000 33.147579
RightShoulder -4.140446 -14.617258 -16.914176
RightArm 16.359436 -27.966637 82.545428
RightForeArm -5.999557 -0.000000 60.242504
RightHand 4.406237 -0.000000 8.523451
RightHandThumb1 -24.326973 -0.000000 -32.862282
LeftUpLeg -38.278717 1.205258 7.523514
LeftLeg 51.200918 -0.000000 -0.000000
LeftFoot -12.244839 14.846319 -19.351612
LeftToeBase -7.271021 -0.000000 0.000000
RightUpLeg -4.312276 -14.941610 11.702289
RightLeg 2.121314 -0.000000 -0.000000
RightFoot -15.013474 -9.887506 3.211938
RightToeBase 0.144617 -0.000000 -0.000000
3945
root -1.491918 32.210383 5.605622 9.265579 7.729553 -5.496443
Spine -6.937061 -1.421623 6.538972
Head 13.930211 -2.472255 -3.700745
LeftShoulder -19.328630 50.023801 0.592280
LeftArm 51.441266 16.232742 -72.901731
LeftForeArm -2.331180 -0.000000 29.703786
LeftHand 13.613061 -0.000000 12.497892
LeftHandThumb1 -26.253704 0.000000 33.147579
RightShoulder -4.106866 -14.520504 -16.937216
RightArm 16.447280 -28.186798 82.596616
RightForeArm -6.193741 0.000000 60.531005
RightHand 4.311542 -0.000000 8.591697
RightHandThumb1 -24.326973 -0.000000 -32.862282
LeftUpLeg -38.512024 1.191952 7.401812
LeftLeg 50.499921 -0.000000 -0.000000
LeftFoot -11.993035 14.743597 -19.211565
LeftToeBase -7.387553 -0.000000 0.000000
RightUpLeg -4.284787 -15.028471 11.623136
RightLeg 2.089855 -0.000000 -0.000000
RightFoot -15.024934 -9.861314 3.189871
RightToeBase 0.251962 -0.000000 -0.000000
3946
root -1.482098 32.210300 5.626544 9.477364 7.346086 -5.308435
Spine -7.063585 -1.015580 6.185620
Head 13.851670 -2.512259 -3.529896
LeftShoulder -19.143652 49.950201 0.899098
LeftArm 51.411363 16.224347 -72.981757
LeftForeArm -2.366007 -0.000000 29.793386
LeftHand 13.605303 0.000000 12.723462
LeftHandThumb1 -26.253704 0.000000 33.147579
RightShoulder -4.140456 -14.398880 -16.879924
RightArm 16.577485 -28.389702 82.747295
RightForeArm -6.555226 -0.000000 60.698951
RightHand 4.363773 -0.000000 8.473917
RightHandThumb1 -24.326973 -0.000000 -32.862282
LeftUpLeg -38.790394 1.510546 7.119530
LeftLeg 49.641484 -0.000000 -0.000000
LeftFoot -11.734672 14.681019 -19.097183
LeftToeBase -6.935213 -0.000000 0.000000
RightUpLeg -4.462587 -14.615417 11.411639
RightLeg 2.224921 -0.000000 -0.000000
RightFoot -15.168373 -10.071539 3.080175
RightToeBase 0.311072 -0.000000 -0.000000
3947
root -1.463914 32.211429 5.671398 9.558865 7.319490 -5.243519
Spine -7.170320 -0.955207 6.106944
Head 13.837925 -2.529975 -3.535629
LeftShoulder -19.030945 49.907028 1.061859
LeftArm 51.377687 16.223325 -73.030916
LeftForeArm -2.509861 -0.000000 29.878208
LeftHand 13.645353 -0.000000 12.455122
LeftHandThumb1 -26.253704 0.000000 33.147579
RightShoulder -4.140182 -14.282104 -16.886531
RightArm 16.636729 -28.576228 82.871468
RightForeArm -6.511212 -0.000000 60.894182
RightHand 4.424866 -0.000000 8.548444
RightHandThumb1 -24.326973 -0.000000 -32.862282
LeftUpLeg -38.990124 1.521646 6.975753
LeftLeg 48.737075 -0.000000 -0.000000
LeftFoot -11.555316 14.723962 -19.217378
LeftToeBase -6.782081 -0.000000 0.000000
RightUpLeg -4.439033 -14.655174 11.333716
RightLeg 2.191543 -0.000000 -0.000000
RightFoot -15.257753 -10.033639 3.181017
RightToeBase 1.008450 -0.000000 -0.000000
3948
root -1.440209 32.211981 5.725821 9.570274 7.414902 -5.206720
Spine -7.228335 -1.076843 6.120810
Head 13.800229 -2.481346 -3.610424
LeftShoulder -19.057078 49.882436 1.060107
LeftArm 51.375696 16.263839 -73.070563
LeftForeArm -2.406981 -0.000000 29.928746
LeftHand 13.612898 -0.000000 12.821332
LeftHandThumb1 -26.253704 0.000000 33.147579
RightShoulder -4.093758 -14.189977 -16.944032
RightArm 16.764549 -28.804132 82.928894
RightForeArm -6.448488 -0.000000 61.109923
RightHand 4.449831 -0.000000 8.643872
RightHandThumb1 -24.326973 -0.000000 -32.862282
LeftUpLeg -39.096595 1.397205 6.876531
LeftLeg 47.745767 -0.000000 -0.000000
LeftFoot -11.499253 14.932184 -19.270110
LeftToeBase -6.555274 -0.000000 0.000000
RightUpLeg -4.348725 -14.861724 11.280683
RightLeg 2.174299 -0.000000 -0.000000
RightFoot -15.209428 -10.072797 3.135116
RightToeBase 0.351389 -0.000000 -0.000000
